<svg width="16" height="16" viewBox="0 0 16 16" fill="none" xmlns="http://www.w3.org/2000/svg">
<mask id="mask0_42_2828" style="mask-type:luminance" maskUnits="userSpaceOnUse" x="0" y="0" width="16" height="16">
<path d="M0 9.53674e-07H16V16H0V9.53674e-07Z" fill="white"/>
</mask>
<g mask="url(#mask0_42_2828)">
<path fill-rule="evenodd" clip-rule="evenodd" d="M2.20658 14.8696C2.43154 14.9978 2.71777 14.9193 2.84588 14.6943L3.38357 13.7502C3.51169 13.5252 3.43318 13.239 3.20822 13.1109C2.98326 12.9828 2.69704 13.0613 2.56892 13.2862L2.03123 14.2303C1.90312 14.4553 1.98162 14.7415 2.20658 14.8696Z" fill="#03141A"/>
<path fill-rule="evenodd" clip-rule="evenodd" d="M13.7932 14.8696C14.0181 14.7415 14.0966 14.4553 13.9685 14.2303L13.4308 13.2862C13.3027 13.0613 13.0165 12.9828 12.7915 13.1109C12.5666 13.239 12.4881 13.5252 12.6162 13.7502L13.1539 14.6943C13.282 14.9193 13.5682 14.9978 13.7932 14.8696Z" fill="#03141A"/>
<path fill-rule="evenodd" clip-rule="evenodd" d="M4.43582 13.2747C3.28471 13.2747 2.2905 12.4693 2.05155 11.3432L2.05155 11.3432L1.65386 9.46925H14.3465L13.9488 11.3433C13.7099 12.4693 12.7157 13.2747 11.5645 13.2747H4.43582ZM1.13447 11.5378C1.46534 13.097 2.84194 14.2122 4.43582 14.2122H11.5645C13.1585 14.2122 14.5351 13.097 14.8659 11.5379L15.3837 9.09781C15.4131 8.95949 15.3784 8.81532 15.2894 8.70545C15.2004 8.59558 15.0666 8.53175 14.9252 8.53175H1.0752C0.933803 8.53175 0.799962 8.59558 0.71096 8.70545C0.621959 8.81532 0.587308 8.9595 0.616661 9.09781L1.13447 11.5378C1.13447 11.5378 1.13447 11.5378 1.13447 11.5378Z" fill="#03141A"/>
<path fill-rule="evenodd" clip-rule="evenodd" d="M0 9.00049C0 9.25937 0.209866 9.46924 0.46875 9.46924H15.5312C15.7901 9.46924 16 9.25937 16 9.00049C16 8.7416 15.7901 8.53174 15.5312 8.53174H0.46875C0.209866 8.53174 0 8.7416 0 9.00049Z" fill="#03141A"/>
<path fill-rule="evenodd" clip-rule="evenodd" d="M3.27637 9.46924C3.53525 9.46924 3.74512 9.25937 3.74512 9.00049V3.26536C3.74512 2.57009 4.30872 2.00649 5.00396 2.00649C5.69921 2.00649 6.26284 2.5701 6.26284 3.26536V3.2894C6.26284 3.54828 6.4727 3.75814 6.73159 3.75814C6.99047 3.75814 7.20034 3.54828 7.20034 3.2894V3.26536C7.20034 2.05232 6.21696 1.06899 5.00396 1.06899C3.79095 1.06899 2.80762 2.05233 2.80762 3.26536V9.00049C2.80762 9.25937 3.01748 9.46924 3.27637 9.46924Z" fill="#03141A"/>
<path fill-rule="evenodd" clip-rule="evenodd" d="M5.81724 7.94763C6.07612 7.94825 6.28649 7.73889 6.28711 7.48L6.28895 6.71016C6.28957 6.45128 6.08021 6.24091 5.82133 6.24029C5.56244 6.23967 5.35207 6.44903 5.35145 6.70792L5.34961 7.47776C5.34899 7.73664 5.55835 7.94701 5.81724 7.94763Z" fill="#03141A"/>
<path fill-rule="evenodd" clip-rule="evenodd" d="M7.6475 7.94763C7.90638 7.94701 8.11574 7.73664 8.11512 7.47776L8.11328 6.70792C8.11266 6.44903 7.90229 6.23967 7.64341 6.24029C7.38453 6.24091 7.17516 6.45128 7.17578 6.71016L7.17763 7.48C7.17825 7.73889 7.38861 7.94825 7.6475 7.94763Z" fill="#03141A"/>
<path fill-rule="evenodd" clip-rule="evenodd" d="M4.68262 5.11523C4.68262 5.37412 4.89248 5.58398 5.15137 5.58398H8.3118C8.57069 5.58398 8.78055 5.37412 8.78055 5.11523V4.66064C8.78055 3.64444 7.95675 2.82064 6.94055 2.82064H6.52262C5.50642 2.82064 4.68262 3.64444 4.68262 4.66064V5.11523ZM5.62023 4.64648C5.62779 4.15458 6.02892 3.75814 6.52262 3.75814H6.94055C7.43426 3.75814 7.83538 4.15458 7.84295 4.64648H5.62023Z" fill="#03141A"/>
</g>
</svg>
